<svg width="20" height="20" viewBox="0 0 20 20" fill="none" xmlns="http://www.w3.org/2000/svg">
<path d="M16.3996 1.60156H3.59961C2.49561 1.60156 1.59961 2.49756 1.59961 3.60156V16.4016C1.59961 17.5056 2.49561 18.4016 3.59961 18.4016H16.3996C17.5036 18.4016 18.3996 17.5056 18.3996 16.4016V3.60156C18.3996 2.49756 17.5036 1.60156 16.3996 1.60156ZM6.79961 8.00156V15.6016H4.39961V8.00156H6.79961ZM4.39961 5.78956C4.39961 5.22956 4.87961 4.80156 5.59961 4.80156C6.31961 4.80156 6.77161 5.22956 6.79961 5.78956C6.79961 6.34956 6.35161 6.80156 5.59961 6.80156C4.87961 6.80156 4.39961 6.34956 4.39961 5.78956ZM15.5996 15.6016H13.1996C13.1996 15.6016 13.1996 11.8976 13.1996 11.6016C13.1996 10.8016 12.7996 10.0016 11.7996 9.98556H11.7676C10.7996 9.98556 10.3996 10.8096 10.3996 11.6016C10.3996 11.9656 10.3996 15.6016 10.3996 15.6016H7.99961V8.00156H10.3996V9.02556C10.3996 9.02556 11.1716 8.00156 12.7236 8.00156C14.3116 8.00156 15.5996 9.09356 15.5996 11.3056V15.6016Z" fill="#7A7A7A"/>
</svg>
